<svg width="2756" height="900" viewBox="0 0 2756 900" fill="none" xmlns="http://www.w3.org/2000/svg">
<g clip-path="url(#clip0_902_2075)">
<rect x="1795" y="102" width="841" height="667" fill="white"/>
<path d="M639.655 715.227C618.437 710.143 612.469 708.154 598.544 701.081C565.169 683.841 541.298 650.246 530.025 605.379C525.605 587.697 524.942 578.414 524.721 541.062C524.721 502.383 525.384 494.868 530.246 476.744C540.414 437.844 556.107 410.438 581.967 386.788C608.932 362.255 636.34 352.53 674.136 354.74C722.541 357.172 755.253 378.611 776.251 421.71C790.397 450.885 794.596 472.324 796.143 522.275L797.469 565.153H605.838L607.164 573.773C613.574 611.567 628.825 631.459 658.664 640.079C677.23 645.384 714.805 643.395 734.918 635.438C743.318 632.122 754.369 627.039 759.674 623.724C764.757 620.408 769.62 617.756 770.283 617.756C770.946 617.756 771.167 634.554 770.946 654.667L770.283 691.798L756.579 698.65C732.487 711.027 716.352 714.342 678.556 715.227C659.769 715.669 642.087 715.669 639.434 715.006L639.655 715.227ZM715.91 482.27C715.026 471.44 712.374 459.284 709.5 452.432C695.354 419.5 657.117 412.648 632.361 438.95C620.868 451.106 614.016 466.798 607.827 494.426L606.501 500.615H717.457L716.131 482.27H715.91Z" fill="#007683"/>
<path d="M918.593 711.469C865.325 693.345 833.939 630.575 833.939 543.271C833.939 473.208 852.727 419.057 889.196 384.578C914.172 361.15 938.043 352.53 971.861 354.298C1003.03 356.066 1022.48 367.338 1038.61 392.756L1045.02 403.144V195.604H1130.12V710.143H1045.02V658.645L1037.95 670.138C1017.83 702.186 990.648 716.994 952.189 716.994C939.149 716.994 929.202 715.447 918.372 711.69L918.593 711.469ZM1010.1 630.575C1021.37 622.618 1031.98 607.81 1039.05 590.128C1043.69 578.635 1044.14 573.993 1044.14 530.673C1044.14 484.701 1043.92 483.375 1038.17 470.997C1026.23 445.58 1008.11 431.877 985.565 431.877C949.979 431.877 927.655 461.493 921.245 516.97C914.836 571.562 929.644 619.082 957.936 633.669C966.335 638.09 970.977 638.974 984.459 638.311C997.942 637.648 1002.14 636.543 1010.1 630.796V630.575Z" fill="#007683"/>
<path d="M1404.19 713.458C1374.35 703.733 1355.57 682.736 1345.84 648.919C1341.64 634.111 1341.64 590.57 1345.84 575.319C1350.7 557.416 1361.75 538.409 1373.47 527.579C1396.01 506.36 1412.37 500.614 1477.79 490.226L1518.46 483.816V474.091C1518.46 468.787 1516.92 460.167 1514.93 454.641C1507.63 434.307 1492.6 425.245 1465.86 425.024C1436.24 425.024 1408.39 434.528 1381.87 453.536L1370.37 461.714L1369.71 424.582C1369.49 404.248 1369.71 385.904 1370.37 384.135C1372.14 379.494 1398 368.443 1423.2 361.591C1442.87 356.066 1450.83 355.403 1479.56 355.182C1509.18 355.182 1514.26 355.624 1526.64 360.486C1554.27 371.537 1571.73 387.893 1584.33 414.415C1599.36 446.243 1600.24 455.746 1600.24 589.244V708.595H1519.79L1519.13 684.725L1518.46 660.634L1509.18 674.779C1498.35 691.135 1485.31 702.849 1468.95 710.142C1455.03 716.331 1419.44 718.099 1404.41 713.458H1404.19ZM1482.88 638.752C1494.81 633.227 1507.85 617.976 1513.6 602.505C1517.14 593.001 1518.24 584.602 1518.24 567.362C1518.24 554.764 1517.58 544.376 1516.7 544.376C1515.59 544.376 1500.12 546.807 1481.99 549.902C1444.86 556.09 1434.25 561.174 1426.52 576.645C1420.11 589.465 1420.11 613.777 1426.74 624.828C1431.6 632.564 1437.57 638.089 1444.86 641.405C1451.93 644.72 1473.59 642.952 1483.1 638.973L1482.88 638.752Z" fill="#007683"/>
<path d="M0 466.356V222.79H125.323L139.248 270.531C146.984 296.612 166.434 362.697 182.348 416.847C211.966 516.307 219.923 545.482 225.007 570.678L227.659 584.382L232.964 560.511C237.605 540.619 262.581 455.526 323.143 252.407L331.763 223.674L392.767 223.011L453.992 222.569V709.48H368.675L369.338 511.003L370.001 312.746L364.033 342.805C360.718 359.382 350.772 397.176 341.71 426.793C325.795 480.059 265.234 683.841 260.371 700.86L257.94 709.48L223.459 708.817L188.979 708.154L165.108 630.133C152.067 587.255 139.027 543.714 135.711 533.768C96.3683 405.796 85.3169 367.338 81.1173 341.479L76.0337 312.525L76.9178 511.003L77.5809 709.48H0V465.914V466.356Z" fill="#007683"/>
<path d="M1203.72 535.315V360.708H1288.82V709.922H1203.72V535.315Z" fill="#007683"/>
<path d="M1227.81 299.927C1209.91 291.97 1198.64 272.741 1198.64 249.755C1198.64 220.58 1215.43 200.246 1240.85 197.815C1264.5 196.046 1281.96 205.55 1291.25 226.105C1296.99 238.262 1296.99 261.911 1291.25 274.288C1286.83 284.234 1273.34 297.274 1264.06 301.032C1256.1 304.126 1235.77 303.242 1227.81 299.927Z" fill="#007683"/>
<path d="M2043.18 303.462C2028.38 293.295 2019.98 291.306 1987.71 290.201L1957.2 288.875V446.242L1990.14 445.358C2019.98 444.695 2023.73 444.032 2034.34 438.507C2040.75 435.191 2048.05 430.108 2050.7 427.014C2078.77 396.513 2074.57 324.459 2043.63 303.683L2043.18 303.462Z" fill="#FF9C19"/>
<path d="M2351.08 530.673C2343.78 530.673 2290.51 539.956 2284.33 542.387C2264.21 549.902 2254.71 566.478 2256.26 591.233C2257.14 608.03 2261.34 615.545 2274.16 624.386C2284.1 631.017 2304.88 631.459 2317.26 625.049C2341.57 612.672 2354.39 586.149 2354.39 548.576C2354.39 534.209 2353.73 530.673 2350.86 530.673H2351.08Z" fill="#FF9C19"/>
<path d="M2751.8 333.08C2744.51 245.776 2727.93 135.044 2718.2 106.312C2706.05 70.506 2686.15 47.0778 2659.41 37.5738C2643.05 31.8273 2556.63 20.7762 2472.42 12.8194C2447.22 10.3882 2422.03 8.39898 2399.26 6.85183C2263.33 -2.43108 2134.25 -2.43108 2004.73 6.85183C1943.94 11.2723 1883.16 17.6819 1821.49 26.5228C1759.6 34.9216 1746.79 39.784 1727.78 60.3391C1707.66 82.4412 1699.49 106.312 1687.33 179.691C1670.97 277.161 1665 352.751 1665 453.536C1665 470.776 1665 487.353 1665.67 503.487C1667.88 590.791 1676.06 665.496 1692.63 753.684C1704.35 816.454 1721.81 847.176 1753.64 862.647C1779.06 874.583 1949.25 892.485 2088.94 898.011C2259.35 904.642 2465.13 894.696 2629.57 871.93C2672.45 865.963 2692.56 851.817 2710.25 814.465C2726.16 781.09 2742.07 690.472 2750.92 587.255C2752.24 572.888 2753.13 558.301 2754.23 543.492C2757.33 495.531 2755.78 381.262 2751.8 333.301V333.08ZM2132.48 459.946C2113.25 488.9 2081.42 511.665 2047.83 520.506C2039.43 522.716 2019.53 524.705 1995.66 525.368L1956.98 526.695V693.787H1869.68V208.645L1957.65 209.529C2038.54 210.413 2046.72 210.855 2063.3 215.496C2088.27 222.348 2105.96 232.515 2121.87 249.092C2146.18 274.509 2156.35 302.358 2158.34 350.319C2160.33 397.618 2152.81 428.782 2132.48 459.946ZM2434.85 693.787H2354.39V642.068L2348.64 652.235C2334.28 677.21 2317.7 691.577 2294.27 698.87C2278.36 703.733 2254.27 704.175 2240.78 699.755C2209.62 689.809 2189.73 668.369 2181.11 634.774C2176.91 619.082 2176.46 581.95 2180.22 564.71C2186.85 533.546 2206.74 508.35 2235.48 495.089C2253.6 486.911 2268.85 483.374 2320.8 475.418C2354.17 470.113 2354.61 470.113 2354.61 464.146C2354.39 443.148 2343.78 423.256 2328.75 415.521C2316.6 409.111 2287.2 408.669 2266.42 414.637C2249.85 419.499 2224.65 431.876 2215.14 439.833C2211.17 443.148 2207.41 445.801 2206.74 445.801C2206.08 445.801 2205.42 428.34 2205.42 406.901V368.222L2219.79 361.149C2227.52 357.171 2244.98 351.203 2258.24 347.667C2289.41 339.71 2336.49 338.384 2357.04 345.678C2392.85 358.055 2416.72 384.578 2427.11 424.362C2433.52 448.895 2435.07 478.291 2435.07 586.592V693.787H2434.85ZM2588.68 437.623V693.787H2503.59V181.459H2588.68V437.623Z" fill="#FF9C19"/>
</g>
<defs>
<clipPath id="clip0_902_2075">
<rect width="2756" height="900" fill="white"/>
</clipPath>
</defs>
</svg>
